<svg width="375" height="812" viewBox="0 0 375 812" fill="none" xmlns="http://www.w3.org/2000/svg">
<rect width="375" height="812" fill="#121214"/>
<path fill-rule="evenodd" clip-rule="evenodd" d="M127.615 406.004C127.616 407.579 127.158 409.12 126.299 410.43C125.44 411.741 124.219 412.763 122.789 413.367C121.36 413.971 119.786 414.129 118.268 413.823C116.75 413.516 115.356 412.758 114.261 411.644C113.166 410.531 112.42 409.111 112.118 407.566C112.031 407.124 111.982 406.677 111.97 406.23C111.914 408.169 111.132 410.017 109.781 411.393C108.377 412.823 106.472 413.626 104.487 413.626H97V398.381H104.487C106.472 398.381 108.377 399.185 109.781 400.614C111.134 401.991 111.915 403.842 111.97 405.784C111.997 404.82 112.196 403.864 112.562 402.963C113.154 401.508 114.157 400.263 115.444 399.388C116.73 398.512 118.243 398.045 119.791 398.045C121.864 398.048 123.851 398.888 125.317 400.379C126.784 401.871 127.61 403.893 127.615 406.004ZM147.236 398.381L145.109 406.352L142.987 398.381H139.082L136.929 406.378L134.802 398.381H128.775L134.091 413.625H139.082L141.041 407.445L142.987 413.625H147.978L153.263 398.381H147.236ZM169.047 398.381V413.625H163.37V408.169H159.833V413.625H154.155V398.381H159.833V403.837H163.376V398.381H169.047ZM171.175 398.381V413.625H176.846V398.381H171.175ZM189.262 409.262V413.625H178.974V398.381H184.651V409.287L189.262 409.262ZM196.349 404.174V402.719L200.96 402.745V398.381H190.678V413.625H200.96V409.262H196.349V407.807H199.899V404.174H196.349Z" fill="url(#paint0_linear_61466:3219)"/>
<path d="M218.915 398.476L216.894 398.165C216.832 398.165 216.769 398.165 216.769 398.222L215.908 399.347C215.864 399.421 215.844 399.508 215.852 399.594C215.852 399.658 215.79 399.785 215.727 399.721L215.054 399.537C214.929 399.537 214.81 399.537 214.748 399.658L211.99 403.278C211.928 403.342 211.865 403.342 211.747 403.342L210.705 402.84C210.66 402.809 210.607 402.793 210.552 402.793C210.498 402.793 210.444 402.809 210.399 402.84L209.844 403.215C209.799 403.246 209.746 403.263 209.691 403.263C209.636 403.263 209.583 403.246 209.538 403.215L209.295 403.088C209.255 403.069 209.211 403.06 209.167 403.06C209.123 403.059 209.079 403.069 209.038 403.087C208.998 403.104 208.962 403.131 208.932 403.164C208.902 403.197 208.879 403.236 208.864 403.278L208.684 404.149C208.66 404.241 208.665 404.338 208.697 404.428C208.729 404.518 208.788 404.595 208.864 404.65L209.357 404.962L210.643 405.775L211.266 406.149C211.353 406.199 211.452 406.22 211.551 406.209C211.65 406.197 211.742 406.154 211.815 406.086L212.857 405.152C212.951 405.094 213.061 405.072 213.169 405.089L213.475 405.273C213.594 405.336 213.718 405.336 213.781 405.209L214.33 404.714C214.368 404.672 214.418 404.644 214.473 404.632C214.527 404.621 214.584 404.627 214.636 404.65L215.434 405.025C215.559 405.089 215.677 405.025 215.802 404.962L216.17 404.466L218.928 400.846C219.046 400.655 218.99 400.407 218.741 400.407L218.117 400.287C217.992 400.287 217.936 400.096 217.992 399.969L218.978 398.788C219.103 398.661 219.034 398.476 218.915 398.476Z" fill="white"/>
<path d="M209.744 405.774C209.682 405.711 209.619 405.774 209.619 405.838L209.925 406.645V406.835L209.682 407.896C209.678 407.929 209.681 407.963 209.692 407.995C209.703 408.027 209.721 408.056 209.744 408.08L210.474 408.645C210.51 408.673 210.554 408.688 210.599 408.688C210.644 408.688 210.688 408.673 210.724 408.645L211.516 407.959C211.541 407.935 211.57 407.917 211.603 407.906C211.635 407.895 211.669 407.892 211.703 407.896L212.558 407.769C212.62 407.769 212.62 407.705 212.558 407.642L209.744 405.774Z" fill="white"/>
<path d="M209.476 408.455C209.465 408.44 209.452 408.429 209.436 408.421C209.42 408.413 209.403 408.408 209.385 408.408C209.368 408.408 209.35 408.413 209.335 408.421C209.319 408.429 209.305 408.44 209.295 408.455L208.671 408.766C208.655 408.766 208.639 408.773 208.627 408.785C208.615 408.797 208.609 408.813 208.609 408.83L207.261 412.196H207.323L207.629 412.075V412.139L206.65 413.759C206.65 413.822 206.65 413.822 206.706 413.822L210.137 410.265C210.2 410.265 210.2 410.202 210.2 410.138L210.262 409.204C210.262 409.141 210.262 409.077 210.2 409.077L209.476 408.455Z" fill="white"/>
<path d="M236.241 409.262V413.625H222.415C222.415 413.625 228.991 406.27 229.859 404.542C230.545 403.183 229.815 402.364 229.147 402.364C228.48 402.364 227.731 402.751 227.731 404.542L222.459 404.18C222.459 400.776 224.805 398.006 229.147 398.006C233.334 398.006 235.885 400.255 235.885 403.456C235.885 405.451 234.201 407.725 232.342 409.268L236.241 409.262Z" fill="white"/>
<path d="M251.838 406.004C251.838 410.412 248.975 414 244.745 414C240.515 414 237.657 410.412 237.657 406.004C237.657 401.596 240.515 398.013 244.745 398.013C248.975 398.013 251.838 401.557 251.838 406.004Z" fill="white"/>
<path d="M267.08 409.262V413.625H253.255C253.255 413.625 259.83 406.27 260.698 404.542C261.384 403.183 260.654 402.364 259.986 402.364C259.319 402.364 258.57 402.751 258.57 404.542L253.298 404.18C253.298 400.776 255.644 398.006 259.986 398.006C264.173 398.006 266.725 400.255 266.725 403.456C266.725 405.451 265.04 407.725 263.181 409.268L267.08 409.262Z" fill="white"/>
<path d="M277 398V413.625H271.329V403.462L268.833 403.78V399.397L277 398Z" fill="white"/>
<defs>
<linearGradient id="paint0_linear_61466:3219" x1="97" y1="398.423" x2="131.478" y2="455.757" gradientUnits="userSpaceOnUse">
<stop stop-color="#FF008E"/>
<stop offset="1" stop-color="#FFCD1E"/>
</linearGradient>
</defs>
</svg>
